<?xml version="1.0" encoding="UTF-8" standalone="no"?>
<svg
   xmlns:dc="http://purl.org/dc/elements/1.1/"
   xmlns:cc="http://creativecommons.org/ns#"
   xmlns:rdf="http://www.w3.org/1999/02/22-rdf-syntax-ns#"
   xmlns:svg="http://www.w3.org/2000/svg"
   xmlns="http://www.w3.org/2000/svg"
   id="svg22"
   viewBox="0 0 450 123.87"
   version="1.1"
   width="450"
   height="123.87">
  <metadata
     id="metadata28">
    <rdf:RDF>
      <cc:Work
         rdf:about="">
        <dc:format>image/svg+xml</dc:format>
        <dc:type
           rdf:resource="http://purl.org/dc/dcmitype/StillImage" />
        <dc:title></dc:title>
      </cc:Work>
    </rdf:RDF>
  </metadata>
  <defs
     id="defs26" />
  <g
     id="g20"
     fill="#333333"
     transform="translate(-156.15726,-367.21451)">
    <g
       id="g18"
       line-height="125%"
       font-weight="normal"
       font-variant="normal"
       font-size="23.6865px"
       font-stretch="normal"
       font-style="normal"
       transform="matrix(4.129044,0,0,4.129044,-488.6229,-1536.6294)"
       font-family="VomZom"
       style="letter-spacing:0px;word-spacing:0px">
      <path
         id="path4"
         d="m 164.38,467.99 c 4.011,-0.0921 7.7758,3.1703 8.1995,7.17 0.50671,3.5153 -1.5613,7.166 -4.8022,8.5926 -1.9632,0.97468 -4.1802,0.67513 -6.2919,0.72493 h -2.063 v 6.6094 h -3.2677 c 0.007,-5.0998 -0.0132,-10.2 0.01,-15.3 0.10696,-3.7986 3.2179,-7.2015 6.9739,-7.7072 0.41065,-0.061 0.82716,-0.0908 1.2414,-0.0901 z m 0,13.219 c 2.3572,0.0591 4.5679,-1.78 4.9197,-4.1152 0.46978,-2.3507 -1.0297,-4.8765 -3.3219,-5.5815 -2.214,-0.78561 -4.8777,0.24867 -5.9588,2.3393 -0.83901,1.4284 -0.54099,3.1171 -0.59666,4.691 v 2.6665 c 1.6526,-10e-6 3.3051,1e-5 4.9577,-10e-6 z" />
      <path
         id="path6"
         d="m 174.16,467.91 h 3.2308 v 16.488 H 174.16 Z" />
      <path
         id="path8"
         d="m 187.1,478.32 h 0.11776 l 4.5925,6.1234 h 4.0037 l -6.2411,-8.4785 5.5346,-8.0075 h -4.0038 l -3.886,5.6523 h -0.11776 l -3.886,-5.6523 h -4.0037 l 5.5346,8.0075 -6.2411,8.4785 h 4.0038 z" />
      <path
         id="path10"
         d="m 203.13,467.91 c 3.2724,-0.0646 6.4111,2.0792 7.6221,5.1058 0.63231,1.4057 0.62342,2.963 0.60314,4.472 v 6.91 c -2.9161,-0.01 -5.8331,0.0201 -8.7487,-0.0157 -3.3523,-0.16361 -6.4178,-2.608 -7.3775,-5.8156 -0.87984,-2.7888 -0.14884,-6.0271 1.922,-8.1097 1.5471,-1.6003 3.7454,-2.5681 5.9789,-2.5468 z m 4.9576,13.22 c -0.014,-1.8333 0.0294,-3.6684 -0.0241,-5.5004 -0.19325,-2.4562 -2.4685,-4.514 -4.9336,-4.4508 -2.3436,-0.0566 -4.553,1.7616 -4.9197,4.0819 -0.42956,2.2266 0.84881,4.6528 2.9737,5.4838 1.3088,0.57081 2.7544,0.33544 4.1378,0.38549 0.92196,10e-6 1.8439,10e-6 2.7659,10e-6 z" />
      <path
         id="path12"
         d="m 221.19,467.99 c 3.8699,-0.0954 7.4862,2.9494 8.1024,6.7609 0.69922,3.6121 -1.3415,7.5146 -4.7051,9.0017 -3.2872,1.5514 -7.5139,0.55177 -9.7744,-2.2912 -1.401,-1.6503 -2.0047,-3.8445 -1.8853,-5.984 v -14.097 h 3.2677 v 6.6094 c 1.6649,2.1e-4 3.3302,-4.3e-4 4.9948,3.2e-4 z m 0,13.219 c 2.4818,0.0664 4.7507,-2.0174 4.9325,-4.4865 0.31135,-2.4542 -1.5078,-4.9223 -3.9368,-5.3683 -1.3432,-0.18387 -2.7076,-0.0602 -4.0606,-0.0964 h -1.9297 c 0.021,1.8627 -0.0445,3.7289 0.0376,5.5892 0.25949,2.4609 2.485,4.4103 4.957,4.362 z" />
      <path
         id="path14"
         d="m 238.9,467.91 c 3.2725,-0.0646 6.411,2.0793 7.6222,5.1058 0.63229,1.4057 0.62343,2.963 0.60314,4.472 v 6.91 c -2.9161,-0.01 -5.8331,0.0201 -8.7487,-0.0157 -3.3523,-0.16361 -6.4178,-2.608 -7.3775,-5.8156 -0.87985,-2.7888 -0.14883,-6.0271 1.922,-8.1097 1.547,-1.6003 3.7454,-2.5681 5.9788,-2.5468 z m 4.9576,13.22 c -0.014,-1.8333 0.0294,-3.6684 -0.0241,-5.5004 -0.19325,-2.4562 -2.4685,-4.514 -4.9336,-4.4508 -2.3436,-0.0566 -4.553,1.7616 -4.9197,4.0819 -0.42957,2.2266 0.84881,4.6528 2.9737,5.4838 1.3088,0.57081 2.7544,0.33544 4.1378,0.38549 0.92196,10e-6 1.8439,10e-6 2.7659,10e-6 z" />
      <path
         id="path16"
         d="m 265.11,467.95 c -0.007,5.0876 0.0132,10.176 -0.0101,15.263 -0.11859,4.004 -3.5594,7.6027 -7.5766,7.8119 -0.7631,0.0404 -1.5278,0.0158 -2.2917,0.0226 v -3.2677 c 1.3944,-0.007 2.8862,0.13456 4.1212,-0.65516 1.5426,-0.86529 2.523,-2.6105 2.4882,-4.3753 -2.8966,2.3356 -7.3871,2.2143 -10.204,-0.19651 -2.0523,-1.6568 -3.1738,-4.322 -3.0154,-6.9447 v -7.6578 h 3.2677 c 0.015,2.9107 -0.0307,5.8234 0.0241,8.7328 0.17752,2.3961 2.314,4.4238 4.7151,4.4811 2.4332,0.18697 4.7752,-1.7026 5.1382,-4.1097 0.14646,-1.44 0.0425,-2.8946 0.0738,-4.3411 v -4.7632 c 1.0896,-7e-5 2.1792,-1.4e-4 3.2689,-2.1e-4 z" />
    </g>
  </g>
</svg>
