<?xml version="1.0" encoding="UTF-8" standalone="no"?>
<svg
   xmlns:dc="http://purl.org/dc/elements/1.1/"
   xmlns:cc="http://creativecommons.org/ns#"
   xmlns:rdf="http://www.w3.org/1999/02/22-rdf-syntax-ns#"
   xmlns:svg="http://www.w3.org/2000/svg"
   xmlns="http://www.w3.org/2000/svg"
   xmlns:xlink="http://www.w3.org/1999/xlink"
   version="1.1"
   id="svg822"
   xml:space="preserve"
   width="100"
   height="100"
   viewBox="0 0 99.999999 100"><metadata
     id="metadata828"><rdf:RDF><cc:Work
         rdf:about=""><dc:format>image/svg+xml</dc:format><dc:type
           rdf:resource="http://purl.org/dc/dcmitype/StillImage" /><dc:title></dc:title></cc:Work></rdf:RDF></metadata><defs
     id="defs826"><radialGradient
       fx="0"
       fy="0"
       cx="0"
       cy="0"
       r="1"
       gradientUnits="userSpaceOnUse"
       gradientTransform="matrix(-58.392212,-52.806419,-52.806419,58.392212,104.90576,121.15203)"
       spreadMethod="pad"
       id="radialGradient848"><stop
         style="stop-opacity:1;stop-color:#f68912"
         offset="0"
         id="stop844" /><stop
         style="stop-opacity:1;stop-color:#ec008c"
         offset="1"
         id="stop846" /></radialGradient><clipPath
       clipPathUnits="userSpaceOnUse"
       id="clipPath858"><path
         d="M 0,198.425 H 340.157 V 0 H 0 Z"
         id="path856" /></clipPath><radialGradient
       xlink:href="#radialGradient848"
       id="radialGradient1613"
       gradientUnits="userSpaceOnUse"
       gradientTransform="matrix(-58.392211,-52.806419,-52.806419,58.392211,104.90576,121.15203)"
       cx="0"
       cy="0"
       fx="0"
       fy="0"
       r="1"
       spreadMethod="pad" /></defs><g
     id="g830"
     transform="matrix(1.3333333,0,0,-1.3333333,-51.585332,175.64)"><path
       d="M 38.689,94.230001 C 38.689,73.519464 55.478464,56.73 76.189001,56.73 v 0 c 20.709654,0 37.499999,16.789464 37.499999,37.500001 v 0 C 113.689,114.94054 96.898655,131.73 76.189001,131.73 v 0 C 55.478464,131.73 38.689,114.94054 38.689,94.230001"
       style="fill:url(#radialGradient1613);stroke:none;stroke-width:1"
       id="path850" /><path
       style="letter-spacing:0px;word-spacing:0px;fill:#ffffff;stroke-width:3.09678"
       id="path4"
       d="m 64.588997,110.39018 c 6.448216,0.14806 12.500632,-5.09667 13.181786,-11.526731 C 78.585387,93.21214 75.260786,87.343155 70.050609,85.049706 66.894504,83.482778 63.330381,83.964344 59.935543,83.884284 H 56.618997 V 73.258795 h -5.253263 c 0.01125,8.198607 -0.02122,16.397856 0.01608,24.596786 0.171953,6.106749 5.173202,11.577369 11.211471,12.390339 0.660176,0.0981 1.329771,0.14598 1.995716,0.14485 z m 0,-21.2513 c 3.789513,-0.09501 7.343507,2.861587 7.909072,6.61573 0.755233,3.779065 -1.65538,7.83962 -5.340396,8.97301 -3.5593,1.26297 -7.841551,-0.39978 -9.579563,-3.76074 -1.34882,-2.296339 -0.869713,-5.011154 -0.95921,-7.541407 V 89.13872 c 2.656773,1.6e-5 5.313387,-1.6e-5 7.970161,1.6e-5 z" /><path
       style="letter-spacing:0px;word-spacing:0px;fill:#ffffff;stroke-width:3.09678"
       id="path8"
       d="m 90.212768,93.783333 h 0.189316 l 7.38306,-9.84418 h 6.436476 l -10.033395,13.630315 8.897595,12.873122 h -6.436634 l -6.247262,-9.08682 h -0.189317 l -6.247262,9.08682 H 77.528867 L 86.426473,97.569468 76.393074,83.939153 h 6.436641 z" /></g></svg>
