<?xml version="1.0" encoding="UTF-8" standalone="no"?>
<svg
   xmlns:dc="http://purl.org/dc/elements/1.1/"
   xmlns:cc="http://creativecommons.org/ns#"
   xmlns:rdf="http://www.w3.org/1999/02/22-rdf-syntax-ns#"
   xmlns:svg="http://www.w3.org/2000/svg"
   xmlns="http://www.w3.org/2000/svg"
   id="svg8"
   version="1.1"
   viewBox="0 0 20 20"
   height="20"
   width="20">
  <defs
     id="defs2" />
  <metadata
     id="metadata5">
    <rdf:RDF>
      <cc:Work
         rdf:about="">
        <dc:format>image/svg+xml</dc:format>
        <dc:type
           rdf:resource="http://purl.org/dc/dcmitype/StillImage" />
        <dc:title></dc:title>
      </cc:Work>
    </rdf:RDF>
  </metadata>
  <path
     style="letter-spacing:0px;word-spacing:0px;stroke-width:4.12905"
     id="path4"
     d="M 5.0751454,4.8030257 C 7.5495396,4.746209 9.8720524,6.7587903 10.133433,9.2262133 10.446024,11.394809 9.1702646,13.646934 7.1709469,14.527006 5.9598446,15.128288 4.5921729,14.943495 3.2894608,14.974217 H 2.0167919 v 4.077352 H 9.4111053e-4 C 0.00526111,15.905492 -0.00719889,12.759168 0.00711111,9.6129678 0.07309511,7.2696036 1.9922402,5.1703476 4.3093242,4.8583803 4.5626551,4.8207493 4.8196009,4.8023653 5.0751464,4.8027973 Z m 0,8.1548283 C 6.529307,12.994313 7.8930923,11.859768 8.1101185,10.419179 8.3999267,8.9690269 7.4748944,7.4108558 6.0608316,6.9759399 4.6950103,6.4912953 3.0517684,7.1293448 2.3848356,8.4190587 1.8672486,9.3002417 2.0510978,10.342004 2.0167548,11.312946 v 1.64497 c 1.0194923,-7e-6 2.0389229,6e-6 3.0584153,-7e-6 z" />
  <path
     style="letter-spacing:0px;word-spacing:0px;stroke-width:4.12905"
     id="path8"
     d="m 14.907836,11.175624 h 0.07265 l 2.833123,3.777538 h 2.46989 L 16.433349,9.7227579 19.847654,4.7829147 H 17.377702 L 14.98042,8.2698301 H 14.90777 L 12.510493,4.7829147 h -2.469891 l 3.414306,4.9398432 -3.8501466,5.2304041 h 2.4699516 z" />
</svg>
